# ProBuilder 5.1.1
# https://unity3d.com/unity/features/worldbuilding/probuilder
# 11.02.2024 18:01:12

mtllib ./TargetDetection_ViewAngle.mtl
o TargetDetection_ViewAngle

g TargetDetection_ViewAngle
v -74.71004 -22.15458 0.2231649
v -37.21004 -22.15458 43.52444
v 0.2899565 22.84542 0.2231649
v 0.2899565 -22.15458 0.2231649
v 37.78996 -22.15458 43.52443
v 75.28996 -22.15458 0.2231606
v 37.78995 -22.15458 -43.07811
v -37.21004 -22.15458 -43.07811

vt 0 0
vt 100 0
vt 50.00001 97.59611
vt -74.71004 0.2231649
vt -37.21004 43.52444
vt 0.2899565 0.2231649
vt 37.78996 43.52443
vt 75.28996 0.2231606
vt 37.78995 -43.07811
vt -37.21004 -43.07811

vn -0.4699563 0.7832605 0.4069941
vn 0 -1 0
vn 3.665043E-08 0.6933753 0.7205767
vn 0.4699563 0.7832605 0.406994
vn 0.4699563 0.7832605 -0.4069941
vn 0 0.6933753 -0.7205767
vn -0.4699562 0.7832604 -0.4069941

usemtl ProBuilderDefault
f 1/1/1 2/2/1 3/3/1
f 4/6/2 2/5/2 1/4/2
f 2/1/3 5/2/3 3/3/3
f 4/6/2 5/7/2 2/5/2
f 5/1/4 6/2/4 3/3/4
f 4/6/2 6/8/2 5/7/2
f 6/1/5 7/2/5 3/3/5
f 4/6/2 7/9/2 6/8/2
f 7/1/6 8/2/6 3/3/6
f 4/6/2 8/10/2 7/9/2
f 8/1/7 1/2/7 3/3/7
f 4/6/2 1/4/2 8/10/2

